<svg xmlns="http://www.w3.org/2000/svg" xmlns:xlink="http://www.w3.org/1999/xlink" width="500" zoomAndPan="magnify" viewBox="0 0 375 374.999991" height="500" preserveAspectRatio="xMidYMid meet" version="1.0"><defs><clipPath id="905e044a7d"><path d="M 105.996094 223 L 256.746094 223 L 256.746094 257.898438 L 105.996094 257.898438 Z M 105.996094 223 " clip-rule="nonzero"/></clipPath><clipPath id="1fbe76497e"><path d="M 146 116.898438 L 256.746094 116.898438 L 256.746094 235 L 146 235 Z M 146 116.898438 " clip-rule="nonzero"/></clipPath></defs><g clip-path="url(#905e044a7d)"><path fill="#3b3f3f" d="M 229.550781 240.71875 L 234.316406 232.464844 L 243.851562 232.464844 L 248.617188 240.71875 L 243.851562 248.976562 L 234.316406 248.976562 Z M 105.992188 240.71875 C 105.992188 250.316406 113.769531 258.09375 123.367188 258.09375 C 131.25 258.09375 137.902344 252.839844 140.023438 245.644531 L 222.984375 245.644531 C 225.109375 252.839844 231.761719 258.09375 239.644531 258.09375 C 249.238281 258.09375 257.015625 250.316406 257.015625 240.71875 C 257.015625 231.125 249.238281 223.347656 239.644531 223.347656 C 231.761719 223.347656 225.109375 228.601562 222.984375 235.800781 L 140.023438 235.800781 C 137.902344 228.601562 131.25 223.347656 123.367188 223.347656 C 121.480469 223.347656 119.667969 223.652344 117.96875 224.207031 L 132.011719 238.253906 L 129.546875 247.460938 L 120.335938 249.929688 L 106.59375 236.1875 C 106.203125 237.632812 105.992188 239.152344 105.992188 240.71875 " fill-opacity="1" fill-rule="nonzero"/></g><g clip-path="url(#1fbe76497e)"><path fill="#f99026" d="M 252.46875 226.691406 C 248.957031 223.480469 244.402344 221.710938 239.644531 221.710938 C 232.242188 221.710938 225.457031 226.066406 222.363281 232.800781 C 221.949219 233.703125 221.058594 234.238281 220.125 234.238281 C 219.78125 234.238281 219.433594 234.164062 219.101562 234.011719 C 217.867188 233.445312 217.324219 231.984375 217.890625 230.75 C 220.195312 225.734375 224.125 221.78125 228.878906 219.378906 L 227.402344 213.773438 L 208.363281 233.503906 L 151.359375 233.503906 C 148.640625 233.503906 146.4375 231.300781 146.4375 228.582031 C 146.4375 225.863281 148.640625 223.660156 151.359375 223.660156 L 204.183594 223.660156 L 224.472656 202.636719 L 220.816406 188.765625 C 220.289062 186.765625 221.074219 184.730469 222.640625 183.566406 L 206.476562 122.007812 L 216.695312 122.1875 C 217.628906 119.664062 220.046875 117.863281 222.890625 117.863281 C 226.542969 117.863281 229.503906 120.824219 229.503906 124.472656 C 229.503906 128.125 226.542969 131.085938 222.890625 131.085938 C 219.722656 131.085938 217.074219 128.851562 216.433594 125.871094 L 211.285156 125.785156 L 216.972656 147.445312 C 229.597656 143.820312 231.085938 132.828125 231.191406 128.734375 L 230.179688 128.441406 C 228.847656 130.601562 226.464844 132.046875 223.738281 132.046875 C 223.558594 132.046875 223.378906 132.03125 223.199219 132.019531 C 227.128906 131.742188 230.234375 128.472656 230.234375 124.472656 C 230.234375 120.472656 227.128906 117.207031 223.199219 116.929688 C 223.378906 116.914062 223.558594 116.902344 223.738281 116.902344 C 227.921875 116.902344 231.3125 120.292969 231.3125 124.472656 C 231.3125 124.851562 231.273438 125.222656 231.21875 125.589844 L 235.085938 127.105469 C 235.480469 127.261719 235.742188 127.644531 235.75 128.070312 C 235.773438 129.273438 235.964844 131.785156 237.039062 133.660156 C 237.167969 133.882812 236.988281 134.164062 236.730469 134.140625 C 235.605469 134.046875 233.554688 132.234375 232.960938 129.242188 L 232.386719 129.078125 C 232.140625 133.667969 230.203125 144.917969 217.285156 148.632812 L 226.210938 182.632812 C 228.136719 182.886719 229.8125 184.265625 230.335938 186.257812 L 238.390625 216.835938 C 238.808594 216.8125 239.222656 216.789062 239.644531 216.789062 C 245.636719 216.789062 251.371094 219.015625 255.789062 223.058594 C 256.792969 223.976562 256.863281 225.53125 255.945312 226.535156 C 255.027344 227.539062 253.46875 227.605469 252.46875 226.691406 " fill-opacity="1" fill-rule="nonzero"/></g></svg>